# xmcd
#
# Track frame offsets:
#	150
#	12141
#	22302
#	34198
#	45062
#	56623
#	68711
#	79123
#	89874
#	101749
#	113203
#	123790
#	134575
#	146761
#	158300
#	170525
#	183546
#	195897
#	206663
#	218455
#	231158
#	242854
#	254477
#	266296
#	277744
#	289147
#
# Disc length: 3995 seconds
#
# Revision: 0
# Processed by: cddbd v1.5.2PL0 Copyright (c) Steve Scherf et al.
# Submitted via: EasyCDDAExtractor 10.0.5.1
#
DISCID=6e0f991a
DTITLE=Various Artist - New York Blues And R&B (1947-1955) - Disc B (1948-55)
DYEAR=2007
DGENRE=Blues
TTITLE0=Sticks McGhee - Little Things We Used To Do
TTITLE1=Sticks McGhee - Blues In My Heart and Tears In My Eyes
TTITLE2=Sticks McGhee - Whiskey Women And Loaded Dice
TTITLE3=Sticks McGhee - Head Happy With Wine
TTITLE4=Sticks McGhee - I'm Doin' All This Time (And You Put Me Down)
TTITLE5=Sticks McGhee - Dealin' From The Bottom
TTITLE6=Sticks McGhee - The Wiggle Waggle Woo
TTITLE7=Sticks McGhee - Jungle Juice
TTITLE8=Sticks McGhee - Ease My Worried Mind
TTITLE9=Sticks McGhee - Things Have Changed
TTITLE10=Sticks McGhee - Travelin' On
TTITLE11=Sticks McGhee - Help Me, Baby
TTITLE12=Sticks McGhee - Double Crossin' Liquor
TTITLE13=Sticks McGhee - Six To Eight
TTITLE14=Sticks McGhee - Get Your Mind Out Of The Gutter
TTITLE15=Sticks McGhee - Sad, Bad, Glad
TTITLE16=Brownie McGhee - Bad Nerves
TTITLE17=Brownie McGhee - Sweet Baby Blues
TTITLE18=Brownie McGhee - Don't Mistreat Me
TTITLE19=Brownie McGhee - Four O'Clock In The Morning
TTITLE20=Brownie McGhee - Sweet Lover
TTITLE21=Brownie McGhee - Brownie's New Worried Life Blues
TTITLE22=Brownie McGhee - I Was Fooled
TTITLE23=Brownie McGhee - Confused
TTITLE24=Brownie McGhee - It Hurts Me, Too
TTITLE25=Brownie McGhee - Contact Me
EXTD=
EXTT0=
EXTT1=
EXTT2=
EXTT3=
EXTT4=
EXTT5=
EXTT6=
EXTT7=
EXTT8=
EXTT9=
EXTT10=
EXTT11=
EXTT12=
EXTT13=
EXTT14=
EXTT15=
EXTT16=
EXTT17=
EXTT18=
EXTT19=
EXTT20=
EXTT21=
EXTT22=
EXTT23=
EXTT24=
EXTT25=
PLAYORDER=
